<svg width="40" height="50" viewBox="0 0 40 50" fill="none" xmlns="http://www.w3.org/2000/svg">
<path d="M19.9904 1.48451C20.0673 1.94349 21.5385 10.713 21.5385 14.0626C21.5385 19.17 18.8654 22.8126 14.9135 24.2774L16.1538 47.5293C16.2212 48.8672 15.1731 50 13.8462 50H7.69231C6.375 50 5.31731 48.877 5.38462 47.5293L6.625 24.2774C2.66346 22.8126 0 19.1602 0 14.0626C0 10.7032 1.47115 1.94349 1.54808 1.48451C1.85577 -0.497906 5.90385 -0.527203 6.15385 1.59193V15.381C6.27885 15.713 7.60577 15.6935 7.69231 15.381C7.82692 12.9103 8.45192 1.78724 8.46154 1.53334C8.77885 -0.497906 12.7596 -0.497906 13.0673 1.53334C13.0865 1.79701 13.7019 12.9103 13.8365 15.381C13.9231 15.6935 15.2596 15.713 15.375 15.381V1.59193C15.625 -0.517437 19.6827 -0.497906 19.9904 1.48451ZM31.4519 29.3848L30.0096 47.4609C29.8942 48.8281 30.9615 50 32.3077 50H37.6923C38.9712 50 40 48.9551 40 47.6563V2.34388C40 1.05482 38.9712 0.000139575 37.6923 0.000139575C29.7596 0.000139575 16.4038 17.4317 31.4519 29.3848Z" fill="#FF8E2B"/>
</svg>
