<svg width="50" height="46" viewBox="0 0 50 46" fill="none" xmlns="http://www.w3.org/2000/svg">
<path d="M47.413 0.873492C46.9268 -0.249404 45.5378 -0.29432 44.9561 0.765694C42.2649 5.60762 37.4467 8.62597 31.9427 8.62597H24.9976C15.7954 8.62597 8.32938 16.3515 8.32938 25.8737C8.32938 26.5025 8.39883 27.1043 8.4596 27.7152C13.9983 23.6099 21.9939 20.1244 33.3317 20.1244C34.0957 20.1244 34.7208 20.7712 34.7208 21.5617C34.7208 22.3523 34.0957 22.999 33.3317 22.999C11.5068 22.999 2.25241 36.8421 0.203603 42.0434C-0.369368 43.5076 0.30778 45.1785 1.72284 45.7804C3.14659 46.3912 4.76133 45.6815 5.35166 44.2263C5.48188 43.9029 7.16607 39.9233 11.5936 36.0875C14.4063 40.0311 19.7541 43.7951 26.7773 43.0225C40.4071 41.9984 50 29.3501 50 13.8632C50 9.35361 49.0624 4.68236 47.413 0.873492Z" fill="#FF8E2B"/>
</svg>
