<svg width="54" height="47" viewBox="0 0 54 47" fill="none" xmlns="http://www.w3.org/2000/svg">
<path d="M27.0005 20.1433C18.6253 20.1433 6.75074 33.0219 6.75074 41.1513C6.75074 44.8126 9.57833 47 14.317 47C19.468 47 22.8694 44.3689 27.0005 44.3689C31.1676 44.3689 34.5784 47 39.6841 47C44.4227 47 47.2503 44.8126 47.2503 41.1513C47.2503 33.0219 35.3757 20.1433 27.0005 20.1433ZM11.4673 18.8204C10.3704 15.1853 6.99121 12.8311 3.91999 13.5613C0.848769 14.2915 -0.751175 17.83 0.345688 21.4651C1.44255 25.1002 4.82174 27.4544 7.89295 26.7242C10.9642 25.9941 12.5641 22.4555 11.4673 18.8204ZM20.4025 16.6404C23.6656 15.7864 25.2983 11.4012 24.0495 6.84606C22.8008 2.2909 19.1432 -0.708446 15.88 0.145514C12.6168 0.999474 10.9842 5.38467 12.2329 9.93982C13.4817 14.495 17.1404 17.4954 20.4025 16.6404ZM50.08 13.5623C47.0088 12.8322 43.6307 15.1863 42.5327 18.8214C41.4359 22.4565 43.0358 25.9951 46.107 26.7253C49.1783 27.4554 52.5564 25.1013 53.6543 21.4662C54.7512 17.8311 53.1512 14.2925 50.08 13.5623ZM33.5986 16.6404C36.8617 17.4943 40.5194 14.495 41.7681 9.93982C43.0168 5.38467 41.3842 1.00052 38.121 0.145514C34.8579 -0.709495 31.2002 2.2909 29.9515 6.84606C28.7028 11.4012 30.3354 15.7864 33.5986 16.6404Z" fill="#FF8E2B"/>
</svg>
