<svg width="87" height="28" viewBox="0 0 87 28" fill="none" xmlns="http://www.w3.org/2000/svg">
<path d="M84.7582 19.0167C85.9722 19.0167 86.839 20.3328 86.4149 21.5729C85.2429 25.0193 82.1951 27.4716 78.623 27.4716C75.0486 27.4716 72.0008 25.0168 70.8287 21.5729C70.407 20.3328 71.2714 19.0167 72.4854 19.0167C73.2241 19.0167 73.8742 19.5213 74.1352 20.2745C74.8202 22.2449 76.5702 23.6448 78.623 23.6448C80.6712 23.6448 82.4234 22.2449 83.1085 20.2745C83.3695 19.5239 84.0196 19.0167 84.7582 19.0167Z" fill="#FF8E2B"/>
<path d="M86.4873 3.78827C86.8298 3.41548 86.9999 2.92604 86.9999 2.4366C86.9999 1.94716 86.8298 1.45772 86.4873 1.08494C85.8022 0.33683 84.6884 0.33683 84.0034 1.08494L83.1668 1.99534C81.862 1.06465 80.3008 0.524493 78.6231 0.524493C74.0327 0.524493 70.3115 4.57441 70.3115 9.56771C70.3115 14.5635 74.0327 18.6135 78.6231 18.6135C83.2111 18.6135 86.9323 14.5635 86.9323 9.56771C86.9323 7.78239 86.457 6.11881 85.6344 4.71643L86.4873 3.78827ZM83.4185 9.56518C83.4185 12.4486 81.2701 14.7842 78.6231 14.7842C77.9031 14.7842 77.2204 14.6117 76.6099 14.3023C75.6196 13.8053 74.811 12.9481 74.3263 11.8856C74.0048 11.1882 73.8254 10.3995 73.8254 9.56518C73.8254 6.68179 75.9737 4.34364 78.6231 4.34364C79.3221 4.34364 79.9885 4.50848 80.5874 4.80265C81.6895 5.34027 82.5727 6.32168 83.0433 7.53894C83.2857 8.16279 83.4185 8.8475 83.4185 9.56518Z" fill="#FEFEFE"/>
<path d="M40.4534 0.501663C35.8631 0.501663 32.1418 4.55159 32.1418 9.54742C32.1418 14.5407 35.8631 18.5906 40.4534 18.5906C45.0438 18.5906 48.7626 14.5407 48.7626 9.54742C48.7626 4.55159 45.0438 0.501663 40.4534 0.501663ZM40.4534 14.7639C37.8041 14.7639 35.6557 12.4257 35.6557 9.54235C35.6557 6.65897 37.8041 4.32335 40.4534 4.32335C43.1028 4.32335 45.2488 6.65897 45.2488 9.54235C45.2488 12.4257 43.1028 14.7639 40.4534 14.7639Z" fill="#FEFEFE"/>
<path d="M67.8649 9.5677V16.6887C67.8649 17.7462 67.0797 18.6008 66.108 18.6008C65.2179 18.6008 64.4793 17.878 64.3674 16.9423C64.3558 16.8586 64.3511 16.7749 64.3511 16.6887V9.56517C64.3511 6.68179 62.2051 4.34364 59.5557 4.34364C56.9064 4.34364 54.758 6.68179 54.758 9.56517V16.6887C54.758 16.7749 54.7533 16.8586 54.7417 16.9423C54.6298 17.878 53.8935 18.6008 53.0011 18.6008C52.0317 18.6008 51.2441 17.7462 51.2441 16.6887V2.4366C51.2441 1.3791 52.0317 0.52449 53.0011 0.52449C53.4881 0.52449 53.9261 0.737508 54.243 1.08493C54.5133 1.37657 54.6951 1.76204 54.7417 2.19568C56.1001 1.14326 57.7615 0.52449 59.5557 0.52449C61.3499 0.52449 63.0113 1.14326 64.3674 2.19568C66.4855 3.83391 67.8649 6.52456 67.8649 9.5677Z" fill="#FEFEFE"/>
<path d="M16.6208 9.56805V16.689C16.6208 17.7465 15.8356 18.6011 14.8639 18.6011C13.9738 18.6011 13.2351 17.8784 13.1233 16.9426C13.1116 16.8589 13.107 16.7752 13.107 16.689V9.56552C13.107 6.68214 10.9609 4.34399 8.31157 4.34399C5.66221 4.34399 3.51383 6.68214 3.51383 9.56552V16.689C3.51383 16.7752 3.50917 16.8589 3.49752 16.9426C3.38568 17.8784 2.64936 18.6011 1.75692 18.6011C0.787583 18.6011 0 17.7465 0 16.689V2.43695C0 1.37945 0.787583 0.524841 1.75692 0.524841C2.24391 0.524841 2.68198 0.737859 2.99888 1.08529C3.26917 1.37692 3.45092 1.76239 3.49752 2.19604C4.85599 1.14361 6.51737 0.524841 8.31157 0.524841C10.1058 0.524841 11.7671 1.14361 13.1233 2.19604C15.2414 3.83426 16.6208 6.52491 16.6208 9.56805Z" fill="#FEFEFE"/>
<path d="M29.7395 9.55249V16.6735C29.7395 17.731 28.9542 18.5856 27.9825 18.5856C27.0924 18.5856 26.3538 17.8628 26.2419 16.9271C26.2303 16.8434 26.2256 16.7597 26.2256 16.6735V9.54996C26.2256 6.66658 24.0796 4.32843 21.4302 4.32843C18.7809 4.32843 16.6325 6.66658 16.6325 9.54996V16.6735C16.6325 16.7597 16.6278 16.8434 16.6162 16.9271C16.5043 17.8628 15.768 18.5856 14.8756 18.5856C13.9062 18.5856 13.1187 17.731 13.1187 16.6735V9.55249C13.1187 6.50934 14.5004 3.8187 16.6162 2.18047C17.9746 1.12805 19.636 0.50927 21.4302 0.50927C23.2244 0.50927 24.8858 1.12805 26.2419 2.18047C28.3577 3.8187 29.7395 6.50934 29.7395 9.55249Z" fill="#FEFEFE"/>
</svg>
