<svg width="53" height="41" viewBox="0 0 53 41" fill="none" xmlns="http://www.w3.org/2000/svg">
<path d="M49.8926 0.00496996C44.8502 0.289589 34.8279 1.32557 28.6407 5.09242C28.2138 5.35233 27.9718 5.8145 27.9718 6.29771V39.5981C27.9718 40.6552 29.1339 41.3232 30.1139 40.8327C36.4795 37.6461 45.6857 36.7767 50.2377 36.5387C51.7918 36.4573 53 35.2181 53 33.7328V2.81455C53.0009 1.19378 51.5876 -0.0902082 49.8926 0.00496996ZM24.3593 5.09242C18.1731 1.32557 8.15073 0.290504 3.10828 0.00496996C1.41336 -0.0902082 0 1.19378 0 2.81455V33.7337C0 35.22 1.20816 36.4591 2.76231 36.5396C7.31615 36.7776 16.5269 37.6479 22.8925 40.8364C23.8697 41.326 25.0282 40.6588 25.0282 39.6046V6.28123C25.0282 5.79711 24.7871 5.35325 24.3593 5.09242Z" fill="#FF8E2B"/>
</svg>
